<mxfile host="Electron" agent="Mozilla/5.0 (X11; Linux x86_64) AppleWebKit/537.36 (KHTML, like Gecko) draw.io/25.0.2 Chrome/128.0.6613.186 Electron/32.2.7 Safari/537.36" version="25.0.2">
  <diagram name="Seite-1" id="bhLrufQwE6neeztawybY">
    <mxGraphModel dx="1195" dy="796" grid="1" gridSize="10" guides="1" tooltips="1" connect="1" arrows="1" fold="1" page="1" pageScale="1" pageWidth="827" pageHeight="1169" math="0" shadow="0">
      <root>
        <mxCell id="0" />
        <mxCell id="1" parent="0" />
        <mxCell id="jQJDxhoKSZgCLVndS6Iz-2" value="&lt;font style=&quot;font-size: 20px;&quot;&gt;OrderService&lt;/font&gt;" style="rounded=0;whiteSpace=wrap;html=1;" parent="1" vertex="1">
          <mxGeometry x="90" y="87.5" width="160" height="60" as="geometry" />
        </mxCell>
        <mxCell id="jQJDxhoKSZgCLVndS6Iz-4" value="&lt;font style=&quot;font-size: 20px;&quot;&gt;ShipmentService&lt;/font&gt;" style="rounded=0;whiteSpace=wrap;html=1;" parent="1" vertex="1">
          <mxGeometry x="720" y="270" width="160" height="60" as="geometry" />
        </mxCell>
        <mxCell id="jQJDxhoKSZgCLVndS6Iz-5" value="" style="rounded=1;whiteSpace=wrap;html=1;dashed=1;direction=east;flipH=0;align=left;shadow=0;glass=0;" parent="1" vertex="1">
          <mxGeometry x="320" y="50" width="600" height="140" as="geometry" />
        </mxCell>
        <mxCell id="jQJDxhoKSZgCLVndS6Iz-17" value="Publiziert OrderCreated" style="endArrow=classic;html=1;rounded=0;exitX=0.5;exitY=0;exitDx=0;exitDy=0;fontSize=18;entryX=0.132;entryY=-0.01;entryDx=0;entryDy=0;entryPerimeter=0;" parent="1" source="jQJDxhoKSZgCLVndS6Iz-2" target="jQJDxhoKSZgCLVndS6Iz-5" edge="1">
          <mxGeometry x="0.0944" y="-20" width="50" height="50" relative="1" as="geometry">
            <mxPoint x="400" y="527.66" as="sourcePoint" />
            <mxPoint x="400" y="10" as="targetPoint" />
            <mxPoint as="offset" />
            <Array as="points">
              <mxPoint x="170" y="10" />
              <mxPoint x="400" y="10" />
            </Array>
          </mxGeometry>
        </mxCell>
        <mxCell id="jQJDxhoKSZgCLVndS6Iz-26" value="&lt;font style=&quot;font-size: 26px;&quot;&gt;Apache Kafka&lt;/font&gt;" style="text;html=1;align=center;verticalAlign=middle;whiteSpace=wrap;rounded=0;" parent="1" vertex="1">
          <mxGeometry x="537.5" y="87.5" width="165" height="65" as="geometry" />
        </mxCell>
        <mxCell id="95UaxX5f6KbYi6wilLm2-1" value="Konsumiert OrderCreated" style="endArrow=classic;html=1;rounded=0;entryX=0.072;entryY=0;entryDx=0;entryDy=0;exitX=0.086;exitY=1;exitDx=0;exitDy=0;exitPerimeter=0;fontSize=18;entryPerimeter=0;" parent="1" source="jQJDxhoKSZgCLVndS6Iz-5" target="jQJDxhoKSZgCLVndS6Iz-3" edge="1">
          <mxGeometry x="-0.2708" width="50" height="50" relative="1" as="geometry">
            <mxPoint x="430" y="210" as="sourcePoint" />
            <mxPoint x="630" y="291" as="targetPoint" />
            <mxPoint as="offset" />
          </mxGeometry>
        </mxCell>
        <mxCell id="95UaxX5f6KbYi6wilLm2-2" value="Konsumiert PaymentProcessed" style="endArrow=classic;html=1;rounded=0;exitX=0.734;exitY=0.995;exitDx=0;exitDy=0;entryX=0.734;entryY=0.995;entryDx=0;entryDy=0;entryPerimeter=0;exitPerimeter=0;fontSize=18;" parent="1" source="jQJDxhoKSZgCLVndS6Iz-5" edge="1">
          <mxGeometry x="0.0265" width="50" height="50" relative="1" as="geometry">
            <mxPoint x="763.0000000000002" y="189.99999999999997" as="sourcePoint" />
            <mxPoint x="759.9999999999998" y="268.6" as="targetPoint" />
            <mxPoint as="offset" />
          </mxGeometry>
        </mxCell>
        <mxCell id="95UaxX5f6KbYi6wilLm2-4" value="Abonniert OrderCreated" style="endArrow=classic;html=1;rounded=0;exitX=0;exitY=0.5;exitDx=0;exitDy=0;dashed=1;dashPattern=1 4;strokeWidth=1;entryX=-0.001;entryY=0.793;entryDx=0;entryDy=0;entryPerimeter=0;fontSize=18;" parent="1" source="jQJDxhoKSZgCLVndS6Iz-3" target="jQJDxhoKSZgCLVndS6Iz-5" edge="1">
          <mxGeometry width="50" height="50" relative="1" as="geometry">
            <mxPoint x="529.9999999999995" y="337" as="sourcePoint" />
            <mxPoint x="489.99999999999955" y="190" as="targetPoint" />
            <Array as="points">
              <mxPoint x="230" y="300" />
              <mxPoint x="230" y="160" />
            </Array>
          </mxGeometry>
        </mxCell>
        <mxCell id="95UaxX5f6KbYi6wilLm2-5" value="Abonniert PaymentProcessed" style="endArrow=classic;html=1;rounded=0;exitX=0.25;exitY=1;exitDx=0;exitDy=0;dashed=1;dashPattern=1 4;strokeWidth=1;fontSize=18;entryX=0.515;entryY=1;entryDx=0;entryDy=0;entryPerimeter=0;" parent="1" source="jQJDxhoKSZgCLVndS6Iz-4" target="jQJDxhoKSZgCLVndS6Iz-5" edge="1">
          <mxGeometry x="-0.4375" y="20" width="50" height="50" relative="1" as="geometry">
            <mxPoint x="629.9999999999995" y="467" as="sourcePoint" />
            <mxPoint x="630" y="200" as="targetPoint" />
            <mxPoint as="offset" />
            <Array as="points">
              <mxPoint x="760" y="360" />
              <mxPoint x="630" y="360" />
            </Array>
          </mxGeometry>
        </mxCell>
        <mxCell id="95UaxX5f6KbYi6wilLm2-7" value="Publiziert ShipmentInitiated" style="endArrow=classic;html=1;rounded=0;exitX=1;exitY=0.5;exitDx=0;exitDy=0;entryX=1;entryY=0.5;entryDx=0;entryDy=0;fontSize=18;" parent="1" edge="1" target="jQJDxhoKSZgCLVndS6Iz-5" source="jQJDxhoKSZgCLVndS6Iz-4">
          <mxGeometry x="0.1333" width="50" height="50" relative="1" as="geometry">
            <mxPoint x="869.9999999999998" y="270" as="sourcePoint" />
            <mxPoint x="870.2" y="190" as="targetPoint" />
            <mxPoint as="offset" />
            <Array as="points">
              <mxPoint x="960" y="300" />
              <mxPoint x="960" y="120" />
            </Array>
          </mxGeometry>
        </mxCell>
        <mxCell id="95UaxX5f6KbYi6wilLm2-8" value="Publiziert PaymentProcessed" style="endArrow=classic;html=1;rounded=0;exitX=0.914;exitY=0.034;exitDx=0;exitDy=0;exitPerimeter=0;fontSize=18;entryX=0.311;entryY=1;entryDx=0;entryDy=0;entryPerimeter=0;" parent="1" source="jQJDxhoKSZgCLVndS6Iz-3" edge="1" target="jQJDxhoKSZgCLVndS6Iz-5">
          <mxGeometry x="-0.463" y="1" width="50" height="50" relative="1" as="geometry">
            <mxPoint x="500.0000000000002" y="300" as="sourcePoint" />
            <mxPoint x="530" y="220" as="targetPoint" />
            <Array as="points" />
            <mxPoint as="offset" />
          </mxGeometry>
        </mxCell>
        <mxCell id="jQJDxhoKSZgCLVndS6Iz-3" value="&lt;font style=&quot;font-size: 20px;&quot;&gt;PaymentService&lt;/font&gt;" style="rounded=0;whiteSpace=wrap;html=1;" parent="1" vertex="1">
          <mxGeometry x="360" y="270" width="160" height="60" as="geometry" />
        </mxCell>
      </root>
    </mxGraphModel>
  </diagram>
</mxfile>
